<?xml version="1.0" encoding="utf-8"?>
<!-- Generator: Adobe Illustrator 16.0.0, SVG Export Plug-In . SVG Version: 6.00 Build 0)  -->
<!DOCTYPE svg PUBLIC "-//W3C//DTD SVG 1.1//EN" "http://www.w3.org/Graphics/SVG/1.1/DTD/svg11.dtd">
<svg version="1.1" id="Layer_1" xmlns="http://www.w3.org/2000/svg" xmlns:xlink="http://www.w3.org/1999/xlink" x="0px" y="0px"
	 width="336.5px" height="612px" viewBox="0 0 336.5 612" enable-background="new 0 0 336.5 612" xml:space="preserve">
<g>
	<path fill-rule="evenodd" clip-rule="evenodd" d="M1.638,290.93c0-3.349,0-6.698,0-10.047c4.168-11.496,12.763-4.748,19.985-4.723
		c-0.108-1.156-0.183-2.233-0.311-3.303c-0.944-7.878-2.509-15.737-2.733-23.635c-0.631-22.281-0.996-44.578-0.912-66.866
		c0.055-14.528,3.524-28.54,10.758-41.171c3.45-6.024,4.926-11.365,1.46-17.568c-0.095-0.17,0.053-0.476,0.125-0.987
		c1.504,0.146,3.009,0.268,4.508,0.445c1.505,0.178,3.005,0.412,4.983,0.689c11.119-21.72,29.863-35.942,49.383-49.363
		c0.825-0.566,2.541-1.234,2.818-0.928c0.72,0.794,1.15,2.099,1.183,3.215c0.063,2.14-0.229,4.29-0.412,6.974
		c12.262-5.164,23.974-10.205,35.776-15.025c7.95-3.246,15.987-6.293,24.071-9.192c2.95-1.057,6.147-1.426,9.231-2.108
		c0.558,0,1.117,0,1.674,0c-1.09,2.947-2.181,5.893-3.55,9.595c6.644-0.471,12.594-0.854,18.538-1.323
		c6.93-0.548,13.845-1.527,20.78-1.686c14.047-0.32,27.549,2.529,40.915,8.051c-2.716,2.211-5.136,4.182-8.552,6.962
		c21.998,6.699,43.49,12.191,60.404,27.573c-2.091,1.162-4.104,2.281-6.428,3.573c12.771,14.534,25.257,28.742,37.747,42.956
		c-2.108,5.147-6.925,1.474-9.974,3.455c1.921,5.879,4.101,11.717,5.738,17.705c6.903,25.242,5.017,50.771,2.189,76.314
		c-0.852,7.696-1.628,15.402-2.461,23.303c3.156,0.433,5.741,0.98,8.345,1.101c4.386,0.205,7.734,1.842,9.618,5.965
		c0,3.349,0,6.698,0,10.047c-0.864-0.716-1.939-1.284-2.558-2.172c-3.565-5.122-6.401-5.633-11.427-1.765
		c-1.492,1.149-2.787,2.557-4.236,3.905c11.722,8.457,11.633,21.69,7.537,29.866c-3.433-8.628-6.651-16.718-9.658-24.277
		c-2.577,6.603-5.505,14.104-8.727,22.359c-1.07-3.272-1.823-5.575-2.575-7.877c-0.52,0.022-1.037,0.045-1.556,0.066
		c-0.949,3.675-2.17,7.303-2.8,11.031c-2.63,15.563-11.269,26.375-25.478,32.933c-13.839,6.388-28.234,8.566-43.22,5.342
		c-20.423-4.394-36.135-14.509-42.228-35.818c-0.955-3.341-1.445-6.812-2.18-10.217c-1.153-5.345-3.157-10.124-8.423-12.779
		c-13.215-6.665-26.58,0.329-28.452,14.868c-2.077,16.134-10.027,28.449-24.146,36.638c-12.915,7.49-27.02,9.877-41.587,8.045
		c-30.704-3.859-42.472-18.382-48.114-39.497c-0.579-2.166-1.291-4.297-2.282-7.574c-1.223,3.951-2.092,6.762-3.113,10.064
		c-1.869-8.041-3.087-15.645-5.504-22.847c-1.592-4.74-4.36-9.368-7.602-13.2c-3.901-4.61-8.78-4.087-13.125,0.189
		C4.048,289.233,2.792,290.031,1.638,290.93z M32.679,289.606c2.083-1.064,3.44-1.711,4.755-2.436
		c8.045-4.431,15.872-9.327,24.17-13.214c11.611-5.439,23.909-8.023,36.897-6.813c15.019,1.4,28.082,7.435,40.235,15.984
		c3.282,2.309,6.703,4.68,10.415,6.076c16.971,6.381,33.301,4.782,48.729-4.877c3.188-1.996,6.178-4.314,9.41-6.228
		c14.271-8.448,29.441-12.859,46.253-10.716c12.972,1.651,24.654,6.502,35.788,13.043c4.983,2.928,10.016,5.773,15.927,9.174
		c0-9.923,0.965-18.931-0.188-27.66c-2.965-22.456-6.782-44.802-10.431-67.163c-1.796-11.007-3.892-22.027-10.915-31.179
		c-3.414-4.448-7.331-8.509-10.94-12.653c-6.663,6.009-12.355,11.563-18.483,16.585c-15.054,12.337-31.988,21.084-51.575,22.72
		c-16.78,1.402-33.679,1.506-50.532,1.9c-28.157,0.657-56.322,0.966-84.477,1.667c-12.822,0.32-22.271,8.06-25.125,20.5
		c-1.393,6.071-1.872,12.357-2.671,18.559C37.521,251.481,35.166,270.094,32.679,289.606z M162.978,152.813
		c6.193-9.924,15.937-15.086,25.961-19.959c3.478-1.69,6.88-3.681,9.956-6.011c3.813-2.887,5.133-6.346,4.818-10.94
		c-1.842,6.218-6.122,9.493-11.364,11.926c-5.039,2.338-10.121,4.65-14.911,7.442C170.57,139.274,165.364,144.876,162.978,152.813z
		 M32.476,205.317c0.368-1.26,0.824-2.503,1.09-3.785c1.309-6.303-0.459-12.082-2.968-17.782
		c-2.429-5.518-6.297-10.698-4.323-17.405c-3.758,4.509-2.627,9.178-0.731,13.771C28.875,188.181,32.8,196.068,32.476,205.317z
		 M159.343,142.66c4.836-4.914,10.328-10.321,15.599-15.934c2.111-2.25,3.74-4.952,5.589-7.448c-0.297-0.204-0.593-0.406-0.889-0.61
		C174.281,128.169,162.156,132.163,159.343,142.66z M38.482,172.151c-0.346-0.034-0.692-0.069-1.038-0.102
		c0.332,7.539,0.663,15.078,0.983,22.348C42.272,187.227,38.596,179.672,38.482,172.151z"/>
	<path fill-rule="evenodd" clip-rule="evenodd" fill="#FFFFFF" d="M16.891,347.874c3.358,5.333,7.695,8.724,14.501,7.841
		c0.94-0.122,2.499,0.899,3.035,1.819c7.569,12.983,14.788,26.176,22.55,39.04c6.911,11.454,10.485,23.803,12.601,36.909
		c1.25,7.749,4.028,15.295,6.583,22.774c1.393,4.076,4.283,7.488,9.014,7.731c4.908,0.253,8.241-2.984,10.065-7.003
		c2.459-5.421,4.575-11.105,5.927-16.891c1.534-6.564,4.535-11.46,10.689-14.491c10.87-5.354,21.6-10.994,32.495-16.295
		c1.366-0.663,3.434-0.228,5.079,0.138c1.152,0.256,2.221,1.157,3.185,1.943c10.358,8.449,20.915,8.625,31.902,1.138
		c4.809-3.278,10.332-3.88,15.575-1.432c8.701,4.062,17.383,8.261,25.665,13.101c8.487,4.96,12.429,12.955,13.8,22.732
		c0.625,4.462,2.751,9.113,5.411,12.802c4.896,6.787,12.478,6.142,15.901-1.535c3.319-7.443,6.439-15.343,7.539-23.331
		c2.423-17.598,8.895-33.116,19.024-47.606c7.166-10.251,13.039-21.405,19.742-32.578c4.624,2.267,8.146,0.272,10.782-3.068
		c3.342-4.235,6.275-8.808,9.508-13.512c0.023-3.925,2.163-7.278,4.88-10.426c0.129-0.981,0.246-1.88,0.364-2.599
		c0.656-3.992,1.592-8.107,1.787-12.152c0.275-5.712-0.223-13.445,2.042-19.42v-2.574c-0.864-0.716-1.939-1.284-2.558-2.172
		c-3.565-5.122-6.401-5.633-11.427-1.765c-1.492,1.149-2.787,2.557-4.236,3.905c11.722,8.457,11.633,21.69,7.537,29.866
		c-3.433-8.628-6.651-16.718-9.658-24.277c-2.577,6.603-5.505,14.104-8.727,22.359c-1.07-3.272-1.823-5.575-2.575-7.877
		c-0.52,0.022-1.037,0.045-1.556,0.066c-0.949,3.675-2.17,7.303-2.8,11.031c-2.63,15.563-11.269,26.375-25.478,32.933
		c-13.839,6.388-28.234,8.566-43.22,5.342c-20.423-4.394-36.135-14.509-42.228-35.818c-0.955-3.341-1.445-6.812-2.18-10.217
		c-1.153-5.345-3.157-10.124-8.423-12.779c-13.215-6.665-26.58,0.329-28.452,14.868c-2.077,16.134-10.027,28.449-24.146,36.638
		c-12.915,7.49-27.02,9.877-41.587,8.045c-30.704-3.859-42.472-18.382-48.114-39.497c-0.579-2.166-1.291-4.297-2.282-7.574
		c-1.223,3.951-2.092,6.762-3.113,10.064c-1.869-8.041-3.087-15.645-5.504-22.847c-1.592-4.74-4.36-9.368-7.602-13.2
		c-3.901-4.61-8.78-4.087-13.125,0.189c-1.036,1.02-2.292,1.818-3.447,2.717v4.539c5.643,13.956,8.687,28.616,9.709,43.606
		C13.195,342.008,15.042,344.941,16.891,347.874z M14.905,294.608c1.338-2.146,2.758-2.979,5.509-1.462
		c-2.569,10.019-5.169,20.156-8.061,31.427C8.751,313.327,9.206,303.748,14.905,294.608z"/>
	<path fill-rule="evenodd" clip-rule="evenodd" fill="#FFFFFF" d="M32.679,289.606c2.487-19.512,4.841-38.125,7.241-56.731
		c0.8-6.201,1.278-12.488,2.671-18.559c2.854-12.439,12.304-20.18,25.125-20.5c28.155-0.701,56.32-1.01,84.477-1.667
		c16.853-0.395,33.751-0.498,50.532-1.9c19.587-1.636,36.521-10.383,51.575-22.72c6.128-5.023,11.82-10.577,18.483-16.585
		c3.609,4.144,7.526,8.205,10.94,12.653c7.023,9.152,9.119,20.172,10.915,31.179c3.648,22.361,7.466,44.707,10.431,67.163
		c1.152,8.729,0.188,17.737,0.188,27.66c-5.911-3.401-10.943-6.247-15.927-9.174c-11.134-6.541-22.816-11.392-35.788-13.043
		c-16.812-2.143-31.981,2.268-46.253,10.716c-3.232,1.914-6.223,4.232-9.41,6.228c-15.428,9.659-31.757,11.258-48.729,4.877
		c-3.712-1.396-7.133-3.767-10.415-6.076c-12.153-8.549-25.216-14.584-40.235-15.984c-12.988-1.21-25.286,1.375-36.897,6.813
		c-8.299,3.887-16.125,8.783-24.17,13.214C36.119,287.894,34.762,288.542,32.679,289.606z"/>
	<path fill-rule="evenodd" clip-rule="evenodd" fill="#FFFFFF" d="M162.978,152.813c2.387-7.938,7.593-13.54,14.46-17.542
		c4.79-2.792,9.872-5.104,14.911-7.442c5.242-2.434,9.522-5.708,11.364-11.926c0.314,4.594-1.005,8.053-4.818,10.94
		c-3.076,2.33-6.479,4.32-9.956,6.011C178.914,137.727,169.171,142.889,162.978,152.813z"/>
	<path fill-rule="evenodd" clip-rule="evenodd" fill="#FFFFFF" d="M32.476,205.317c0.324-9.249-3.602-17.136-6.932-25.201
		c-1.896-4.592-3.027-9.262,0.731-13.771c-1.974,6.707,1.894,11.887,4.323,17.405c2.509,5.7,4.277,11.479,2.968,17.782
		C33.3,202.814,32.844,204.056,32.476,205.317z"/>
	<path fill-rule="evenodd" clip-rule="evenodd" fill="#FFFFFF" d="M159.343,142.66c2.813-10.497,14.938-14.491,20.299-23.991
		c0.296,0.204,0.592,0.406,0.889,0.61c-1.849,2.496-3.478,5.198-5.589,7.448C169.671,132.339,164.179,137.746,159.343,142.66z"/>
	<path fill-rule="evenodd" clip-rule="evenodd" fill="#FFFFFF" d="M38.482,172.151c0.114,7.521,3.791,15.076-0.054,22.246
		c-0.32-7.271-0.652-14.809-0.983-22.348C37.79,172.082,38.136,172.117,38.482,172.151z"/>
	<path fill-rule="evenodd" clip-rule="evenodd" d="M327.464,338.101c-3.232,4.704-6.166,9.276-9.508,13.512
		c-2.636,3.341-6.158,5.335-10.782,3.068c-6.703,11.173-12.576,22.327-19.742,32.578c-10.13,14.49-16.602,30.009-19.024,47.606
		c-1.1,7.988-4.22,15.888-7.539,23.331c-3.424,7.677-11.005,8.322-15.901,1.535c-2.66-3.688-4.786-8.34-5.411-12.802
		c-1.371-9.777-5.313-17.772-13.8-22.732c-8.282-4.84-16.964-9.039-25.665-13.101c-5.243-2.448-10.767-1.847-15.575,1.432
		c-10.987,7.487-21.544,7.312-31.902-1.138c-0.964-0.786-2.033-1.688-3.185-1.943c-1.645-0.365-3.712-0.801-5.079-0.138
		c-10.895,5.301-21.625,10.941-32.495,16.295c-6.154,3.031-9.155,7.927-10.689,14.491c-1.352,5.785-3.467,11.47-5.927,16.891
		c-1.824,4.019-5.157,7.256-10.065,7.003c-4.731-0.243-7.622-3.655-9.014-7.731c-2.555-7.479-5.333-15.025-6.583-22.774
		c-2.115-13.106-5.689-25.455-12.601-36.909c-7.763-12.864-14.981-26.057-22.55-39.04c-0.536-0.92-2.094-1.941-3.035-1.819
		c-6.806,0.883-11.143-2.508-14.501-7.841c-1.848-2.934-3.696-5.866-5.544-8.8c0.142,2.086,0.248,4.177,0.313,6.273
		c1.103,5.564,4.252,9.891,10.307,12.316c7.554,3.025,10.498,8.886,11.552,16.455c1.802,12.947,3.15,26.021,5.999,38.748
		c7.268,32.472,19.47,63.104,38.558,90.477c23.084,33.102,67.122,59.169,116.814,46.249c19.778-5.143,38.175-13.021,51.632-28.94
		c33.943-40.153,52.058-87.041,57.285-139.065c1.077-10.72,2.89-19.907,14.389-25.001c6.308-2.795,8.756-8.875,9.621-15.638
		C327.57,339.965,327.459,339.017,327.464,338.101z M217.887,482.27c-13.662,12.516-30.091,16.238-48.035,16.499
		c-8.824-1.167-17.751-1.838-26.445-3.636c-9.789-2.024-17.929-7.465-24.836-14.691c-7.198-7.531-7.116-16.227-3.997-25.35
		c2.923-8.549,9.442-12.438,18.018-13.354c11.091-1.184,22.191-3.05,33.297-3.119c11.802-0.072,23.614,1.611,35.422,2.539
		c0.972,0.077,1.933,0.294,2.905,0.362c9.45,0.67,16.499,4.649,19.72,14.079C227.403,465.753,226.196,474.656,217.887,482.27z"/>
	<path fill-rule="evenodd" clip-rule="evenodd" d="M12.354,324.573c-3.603-11.245-3.147-20.824,2.551-29.965
		c1.338-2.146,2.758-2.979,5.509-1.462C17.845,303.164,15.245,313.302,12.354,324.573z"/>
	<path fill-rule="evenodd" clip-rule="evenodd" fill="#FFFFFF" d="M169.852,498.769c-8.824-1.167-17.751-1.838-26.445-3.636
		c-9.789-2.024-17.929-7.465-24.836-14.691c-7.198-7.531-7.116-16.227-3.997-25.35c2.923-8.549,9.442-12.438,18.018-13.354
		c11.091-1.184,22.191-3.05,33.297-3.119c11.802-0.072,23.614,1.611,35.422,2.539c0.972,0.077,1.933,0.294,2.905,0.362
		c9.45,0.67,16.499,4.649,19.72,14.079c3.468,10.153,2.261,19.057-6.049,26.67C204.225,494.785,187.796,498.508,169.852,498.769z
		 M169.834,488.688c0.003-0.057,0.006-0.114,0.009-0.172c1.672-0.099,3.346-0.163,5.014-0.302c6.258-0.518,8.034-2.467,8.017-8.75
		c-0.043-16.222-5.109-20.813-19.604-17.943c-3.551,0.703-5.94,2.565-6.658,6.04c-0.731,3.537-1.187,7.149-1.475,10.752
		c-0.578,7.226,1.143,9.159,8.455,9.896C165.667,488.418,167.753,488.531,169.834,488.688z M196.035,445.714
		c-17.047,0-34.094,0-51.141,0C162.016,455.565,179.124,454.509,196.035,445.714z"/>
	<path fill-rule="evenodd" clip-rule="evenodd" d="M169.834,488.688c-2.081-0.157-4.167-0.27-6.243-0.479
		c-7.312-0.737-9.033-2.671-8.455-9.896c0.288-3.603,0.744-7.215,1.475-10.752c0.718-3.475,3.107-5.337,6.658-6.04
		c14.495-2.87,19.562,1.722,19.604,17.943c0.018,6.283-1.759,8.232-8.017,8.75c-1.668,0.139-3.342,0.203-5.014,0.302
		C169.84,488.573,169.837,488.631,169.834,488.688z"/>
	<path fill-rule="evenodd" clip-rule="evenodd" d="M196.035,445.714c-16.911,8.795-34.02,9.851-51.141,0
		C161.941,445.714,178.988,445.714,196.035,445.714z"/>
</g>
</svg>
