<?xml version="1.0" encoding="utf-8"?>
<!-- Generator: Adobe Illustrator 16.0.0, SVG Export Plug-In . SVG Version: 6.00 Build 0)  -->
<!DOCTYPE svg PUBLIC "-//W3C//DTD SVG 1.1//EN" "http://www.w3.org/Graphics/SVG/1.1/DTD/svg11.dtd">
<svg version="1.1" id="Layer_1" xmlns="http://www.w3.org/2000/svg" xmlns:xlink="http://www.w3.org/1999/xlink" x="0px" y="0px"
	 width="336.5px" height="612px" viewBox="0 0 336.5 612" enable-background="new 0 0 336.5 612" xml:space="preserve">
<g opacity="0.1">
	<path fill-rule="evenodd" clip-rule="evenodd" d="M2.997,286.327c0-3.302,0-6.604,0-9.905c4.11-11.334,12.583-4.681,19.704-4.656
		c-0.106-1.14-0.18-2.202-0.307-3.257c-0.931-7.767-2.474-15.516-2.695-23.302c-0.623-21.967-0.982-43.95-0.899-65.924
		c0.054-14.324,3.475-28.138,10.606-40.591c3.401-5.939,4.856-11.205,1.439-17.321c-0.093-0.167,0.052-0.469,0.124-0.973
		c1.483,0.144,2.967,0.264,4.445,0.438c1.484,0.175,2.962,0.406,4.913,0.68C51.29,100.103,69.769,86.081,89.015,72.85
		c0.813-0.558,2.505-1.216,2.779-0.915c0.709,0.783,1.134,2.069,1.166,3.169c0.062,2.109-0.226,4.229-0.405,6.875
		c12.089-5.091,23.636-10.061,35.271-14.813c7.838-3.201,15.762-6.205,23.732-9.063c2.908-1.042,6.06-1.405,9.101-2.079
		c0.55,0,1.101,0,1.651,0c-1.075,2.906-2.15,5.81-3.5,9.46c6.55-0.465,12.417-0.841,18.277-1.304
		c6.831-0.541,13.649-1.506,20.487-1.662c13.849-0.316,27.16,2.494,40.338,7.938c-2.678,2.18-5.063,4.123-8.432,6.864
		c21.688,6.605,42.878,12.02,59.554,27.185c-2.061,1.145-4.046,2.249-6.337,3.522c12.591,14.329,24.9,28.337,37.216,42.351
		c-2.079,5.075-6.828,1.454-9.834,3.407c1.895,5.796,4.043,11.552,5.658,17.455c6.806,24.887,4.945,50.055,2.158,75.24
		c-0.84,7.588-1.605,15.185-2.427,22.975c3.112,0.427,5.66,0.967,8.228,1.085c4.324,0.202,7.626,1.816,9.482,5.881
		c0,3.302,0,6.604,0,9.905c-0.853-0.706-1.912-1.267-2.521-2.142c-3.515-5.05-6.312-5.554-11.266-1.741
		c-1.471,1.133-2.748,2.521-4.177,3.85c11.557,8.338,11.469,21.385,7.431,29.446c-3.384-8.507-6.558-16.483-9.521-23.936
		c-2.541,6.509-5.428,13.905-8.604,22.044c-1.055-3.227-1.797-5.497-2.538-7.766c-0.513,0.022-1.022,0.044-1.534,0.065
		c-0.936,3.623-2.14,7.2-2.76,10.876c-2.594,15.343-11.11,26.003-25.119,32.468c-13.644,6.298-27.836,8.446-42.61,5.267
		c-20.136-4.332-35.626-14.305-41.633-35.313c-0.942-3.293-1.425-6.716-2.149-10.072c-1.137-5.27-3.112-9.981-8.304-12.6
		c-13.029-6.571-26.205,0.324-28.051,14.658c-2.047,15.907-9.885,28.049-23.805,36.122c-12.733,7.385-26.639,9.737-41.002,7.932
		c-30.271-3.805-41.873-18.123-47.437-38.94c-0.571-2.136-1.272-4.236-2.25-7.468c-1.206,3.896-2.063,6.666-3.069,9.923
		c-1.842-7.928-3.043-15.424-5.427-22.525c-1.569-4.674-4.298-9.236-7.495-13.014c-3.847-4.545-8.657-4.03-12.94,0.186
		C5.374,284.654,4.135,285.441,2.997,286.327z M33.601,285.022c2.054-1.049,3.392-1.688,4.688-2.401
		c7.932-4.369,15.648-9.196,23.83-13.027c11.447-5.363,23.572-7.911,36.377-6.718c14.808,1.38,27.686,7.33,39.668,15.759
		c3.236,2.276,6.608,4.614,10.268,5.99c16.732,6.291,32.832,4.714,48.042-4.809c3.143-1.968,6.09-4.253,9.277-6.14
		c14.07-8.33,29.026-12.678,45.601-10.565c12.79,1.628,24.308,6.411,35.284,12.86c4.913,2.886,9.875,5.691,15.703,9.045
		c0-9.783,0.951-18.664-0.186-27.271c-2.923-22.14-6.687-44.17-10.284-66.217c-1.77-10.852-3.836-21.717-10.761-30.74
		c-3.366-4.385-7.228-8.389-10.786-12.475c-6.569,5.924-12.181,11.4-18.223,16.352c-14.842,12.164-31.538,20.787-50.849,22.4
		c-16.544,1.383-33.205,1.485-49.82,1.874c-27.76,0.648-55.528,0.953-83.287,1.644c-12.641,0.315-21.958,7.946-24.772,20.21
		c-1.373,5.985-1.845,12.184-2.633,18.297C38.374,247.434,36.053,265.785,33.601,285.022z M162.063,150.156
		c6.106-9.785,15.713-14.874,25.595-19.679c3.429-1.666,6.784-3.629,9.816-5.926c3.76-2.846,5.061-6.257,4.75-10.786
		c-1.815,6.131-6.035,9.359-11.203,11.759c-4.969,2.305-9.979,4.584-14.701,7.337C169.549,136.808,164.417,142.331,162.063,150.156z
		 M33.4,201.92c0.363-1.243,0.813-2.468,1.075-3.732c1.291-6.214-0.453-11.912-2.926-17.531c-2.395-5.44-6.208-10.548-4.262-17.16
		c-3.705,4.445-2.59,9.049-0.721,13.577C29.85,185.026,33.72,192.802,33.4,201.92z M158.48,140.146
		c4.768-4.844,10.183-10.176,15.379-15.709c2.082-2.218,3.688-4.881,5.511-7.343c-0.293-0.201-0.585-0.4-0.876-0.601
		C173.208,125.859,161.254,129.797,158.48,140.146z M39.322,169.222c-0.341-0.034-0.682-0.068-1.023-0.101
		c0.327,7.433,0.654,14.865,0.97,22.033C43.059,184.086,39.435,176.636,39.322,169.222z"/>
	<path fill-rule="evenodd" clip-rule="evenodd" fill="#FFFFFF" d="M162.063,150.156c2.353-7.826,7.485-13.349,14.257-17.295
		c4.722-2.753,9.732-5.032,14.701-7.337c5.168-2.399,9.388-5.628,11.203-11.759c0.311,4.529-0.99,7.94-4.75,10.786
		c-3.032,2.297-6.388,4.26-9.816,5.926C177.776,135.282,168.169,140.372,162.063,150.156z"/>
	<path fill-rule="evenodd" clip-rule="evenodd" fill="#FFFFFF" d="M33.4,201.92c0.32-9.118-3.551-16.895-6.834-24.846
		c-1.87-4.528-2.984-9.131,0.721-13.577c-1.945,6.612,1.867,11.72,4.262,17.16c2.474,5.62,4.217,11.317,2.926,17.531
		C34.213,199.452,33.764,200.677,33.4,201.92z"/>
	<path fill-rule="evenodd" clip-rule="evenodd" fill="#FFFFFF" d="M158.48,140.146c2.773-10.349,14.728-14.287,20.014-23.653
		c0.291,0.201,0.583,0.4,0.876,0.601c-1.822,2.461-3.429,5.125-5.511,7.343C168.663,129.97,163.249,135.302,158.48,140.146z"/>
	<path fill-rule="evenodd" clip-rule="evenodd" fill="#FFFFFF" d="M39.322,169.222c0.113,7.414,3.737,14.864-0.053,21.933
		c-0.316-7.168-0.643-14.601-0.97-22.033C38.64,169.154,38.98,169.188,39.322,169.222z"/>
	<path fill-rule="evenodd" clip-rule="evenodd" d="M304.229,349.18c4.559,2.234,8.031,0.269,10.63-3.025
		c3.533-4.477,6.589-9.328,10.058-14.32c-0.408,8.113-2.435,15.952-9.821,19.225c-11.337,5.021-13.124,14.08-14.187,24.648
		c-5.153,51.292-23.013,97.519-56.478,137.106c-13.268,15.695-31.404,23.462-50.904,28.532
		c-48.992,12.738-92.409-12.962-115.168-45.598c-18.819-26.986-30.849-57.188-38.015-89.201
		c-2.809-12.547-4.138-25.438-5.914-38.202c-1.04-7.463-3.942-13.241-11.39-16.224c-8.122-3.254-10.957-9.97-10.594-18.524
		c1.863,2.958,3.727,5.914,5.59,8.872c3.311,5.258,7.586,8.602,14.297,7.73c0.927-0.12,2.463,0.887,2.992,1.794
		c7.463,12.8,14.579,25.807,22.232,38.49c6.814,11.293,10.338,23.467,12.423,36.389c1.233,7.641,3.972,15.079,6.49,22.454
		c1.373,4.019,4.223,7.383,8.887,7.622c4.838,0.25,8.125-2.942,9.923-6.904c2.425-5.345,4.511-10.949,5.844-16.652
		c1.512-6.472,4.471-11.299,10.538-14.287c10.716-5.278,21.295-10.84,32.037-16.065c1.347-0.653,3.385-0.225,5.007,0.136
		c1.136,0.252,2.19,1.141,3.14,1.916c10.212,8.33,20.621,8.503,31.453,1.121c4.741-3.231,10.187-3.824,15.356-1.411
		c8.578,4.005,17.138,8.145,25.304,12.916c8.367,4.891,12.253,12.773,13.605,22.413c0.616,4.398,2.711,8.984,5.334,12.621
		c4.828,6.691,12.302,6.055,15.678-1.515c3.272-7.338,6.349-15.126,7.433-23.002c2.389-17.35,8.77-32.649,18.757-46.936
		C291.83,371.193,297.619,360.196,304.229,349.18z M168.841,491.239c17.691-0.258,33.889-3.928,47.358-16.268
		c8.192-7.506,9.383-16.283,5.964-26.294c-3.176-9.297-10.125-13.22-19.442-13.881c-0.959-0.067-1.906-0.281-2.864-0.357
		c-11.642-0.914-23.287-2.574-34.923-2.503c-10.949,0.068-21.894,1.908-32.828,3.076c-8.455,0.902-14.882,4.736-17.764,13.165
		c-3.076,8.994-3.156,17.566,3.94,24.992c6.81,7.125,14.835,12.488,24.486,14.484C151.339,489.426,160.141,490.087,168.841,491.239z
		"/>
	<path fill-rule="evenodd" clip-rule="evenodd" d="M13.562,319.495c-3.552-11.086-3.103-20.53,2.516-29.542
		c1.319-2.116,2.719-2.937,5.431-1.441C18.976,298.389,16.412,308.384,13.562,319.495z"/>
	<path fill-rule="evenodd" clip-rule="evenodd" d="M168.823,481.299c-2.052-0.155-4.108-0.266-6.155-0.472
		c-7.209-0.727-8.906-2.634-8.336-9.758c0.284-3.551,0.733-7.112,1.454-10.601c0.708-3.425,3.063-5.261,6.564-5.954
		c14.291-2.83,19.285,1.697,19.328,17.69c0.018,6.194-1.733,8.116-7.904,8.627c-1.645,0.137-3.294,0.2-4.942,0.297
		C168.829,481.187,168.826,481.243,168.823,481.299z"/>
	<path fill-rule="evenodd" clip-rule="evenodd" d="M194.655,438.931c-16.673,8.671-33.54,9.712-50.42,0
		C161.042,438.931,177.849,438.931,194.655,438.931z"/>
</g>
</svg>
